<svg xmlns="http://www.w3.org/2000/svg" width="29" height="19" viewBox="0 0 29 19">
    <g fill="#FFF" fill-rule="nonzero">
        <path d="M.985 1.99c-.227.397-.368.85-.368 1.332v12.551c0 .482.141.935.368 1.304l7.593-7.594L.985 1.99zM17.248 12.728a3.881 3.881 0 0 1-2.748 1.134c-1.048 0-2.04-.397-2.748-1.134l-2.21-2.21-7.565 7.565c.368.199.765.312 1.218.312h22.667c.425 0 .85-.113 1.218-.312l-7.565-7.565-2.267 2.21zM28.015 1.99l-7.593 7.593 7.593 7.594c.227-.369.368-.822.368-1.304V3.322c0-.51-.141-.964-.368-1.332z"/>
        <path d="M12.687 11.765a2.598 2.598 0 0 0 1.813.737c.652 0 1.303-.255 1.813-.737L27.052 1.027a2.485 2.485 0 0 0-1.19-.312H3.195c-.425 0-.85.113-1.19.312l10.682 10.738z"/>
    </g>
</svg>
