<svg xmlns="http://www.w3.org/2000/svg" width="21" height="24" viewBox="0 0 21 24">
    <path fill="#FFF" fill-rule="evenodd" d="M10.5 23.296c-.702 0-1.301-.216-1.797-.648-.496-.432-.744-.942-.744-1.53h5.082c0 .588-.248 1.098-.744 1.53-.496.432-1.095.648-1.797.648zm7.517-7.117l2.283 2.325v1.163H.7v-1.163l2.283-2.325V9.867c0-1.735.547-3.276 1.643-4.623C5.72 3.896 7.103 3.02 8.774 2.614v-.83c0-.48.158-.887.473-1.219C9.563.233 9.98.067 10.5.067c.52 0 .937.166 1.253.498.315.332.473.738.473 1.218v.83c1.67.407 3.053 1.283 4.148 2.63 1.096 1.348 1.643 2.889 1.643 4.624v6.312z"/>
</svg>
