<svg xmlns="http://www.w3.org/2000/svg" xmlns:xlink="http://www.w3.org/1999/xlink" width="818" height="424" viewBox="0 0 818 424">
    <defs>
        <filter id="a" width="170.8%" height="170.8%" x="-34.4%" y="-30.7%" filterUnits="objectBoundingBox">
            <feOffset dx="1" dy="5" in="SourceAlpha" result="shadowOffsetOuter1"/>
            <feGaussianBlur in="shadowOffsetOuter1" result="shadowBlurOuter1" stdDeviation="10"/>
            <feColorMatrix in="shadowBlurOuter1" result="shadowMatrixOuter1" values="0 0 0 0 0.735783376 0 0 0 0 0.735783376 0 0 0 0 0.735783376 0 0 0 0.716457201 0"/>
            <feMerge>
                <feMergeNode in="shadowMatrixOuter1"/>
                <feMergeNode in="SourceGraphic"/>
            </feMerge>
        </filter>
        <circle id="b" cx="53" cy="53" r="53"/>
        <linearGradient id="d" x1="50%" x2="50%" y1="0%" y2="100%">
            <stop offset="0%" stop-color="#F9F9F9" stop-opacity=".685"/>
            <stop offset="100%" stop-color="#666" stop-opacity=".132"/>
        </linearGradient>
        <filter id="e" width="175%" height="175%" x="-36.5%" y="-32.5%" filterUnits="objectBoundingBox">
            <feOffset dx="1" dy="5" in="SourceAlpha" result="shadowOffsetOuter1"/>
            <feGaussianBlur in="shadowOffsetOuter1" result="shadowBlurOuter1" stdDeviation="10"/>
            <feColorMatrix in="shadowBlurOuter1" result="shadowMatrixOuter1" values="0 0 0 0 0.735783376 0 0 0 0 0.735783376 0 0 0 0 0.735783376 0 0 0 0.716457201 0"/>
            <feMerge>
                <feMergeNode in="shadowMatrixOuter1"/>
                <feMergeNode in="SourceGraphic"/>
            </feMerge>
        </filter>
        <circle id="f" cx="50" cy="50" r="50"/>
        <path id="h" d="M0 0h60v60H0z"/>
        <filter id="j" width="167%" height="167%" x="-32.6%" y="-29.1%" filterUnits="objectBoundingBox">
            <feOffset dx="1" dy="5" in="SourceAlpha" result="shadowOffsetOuter1"/>
            <feGaussianBlur in="shadowOffsetOuter1" result="shadowBlurOuter1" stdDeviation="10"/>
            <feColorMatrix in="shadowBlurOuter1" result="shadowMatrixOuter1" values="0 0 0 0 0.735783376 0 0 0 0 0.735783376 0 0 0 0 0.735783376 0 0 0 0.716457201 0"/>
            <feMerge>
                <feMergeNode in="shadowMatrixOuter1"/>
                <feMergeNode in="SourceGraphic"/>
            </feMerge>
        </filter>
        <filter id="k" width="213.6%" height="213.6%" x="-55.3%" y="-49.2%" filterUnits="objectBoundingBox">
            <feOffset dx="1" dy="5" in="SourceAlpha" result="shadowOffsetOuter1"/>
            <feGaussianBlur in="shadowOffsetOuter1" result="shadowBlurOuter1" stdDeviation="10"/>
            <feColorMatrix in="shadowBlurOuter1" result="shadowMatrixOuter1" values="0 0 0 0 0.735783376 0 0 0 0 0.735783376 0 0 0 0 0.735783376 0 0 0 0.716457201 0"/>
            <feMerge>
                <feMergeNode in="shadowMatrixOuter1"/>
                <feMergeNode in="SourceGraphic"/>
            </feMerge>
        </filter>
        <circle id="l" cx="33" cy="33" r="33"/>
        <filter id="n" width="170.8%" height="170.8%" x="-34.4%" y="-30.7%" filterUnits="objectBoundingBox">
            <feOffset dx="1" dy="5" in="SourceAlpha" result="shadowOffsetOuter1"/>
            <feGaussianBlur in="shadowOffsetOuter1" result="shadowBlurOuter1" stdDeviation="10"/>
            <feColorMatrix in="shadowBlurOuter1" result="shadowMatrixOuter1" values="0 0 0 0 0.735783376 0 0 0 0 0.735783376 0 0 0 0 0.735783376 0 0 0 0.716457201 0"/>
            <feMerge>
                <feMergeNode in="shadowMatrixOuter1"/>
                <feMergeNode in="SourceGraphic"/>
            </feMerge>
        </filter>
        <circle id="o" cx="53" cy="53" r="53"/>
        <filter id="q" width="213.6%" height="213.6%" x="-55.3%" y="-49.2%" filterUnits="objectBoundingBox">
            <feOffset dx="1" dy="5" in="SourceAlpha" result="shadowOffsetOuter1"/>
            <feGaussianBlur in="shadowOffsetOuter1" result="shadowBlurOuter1" stdDeviation="10"/>
            <feColorMatrix in="shadowBlurOuter1" result="shadowMatrixOuter1" values="0 0 0 0 0.735783376 0 0 0 0 0.735783376 0 0 0 0 0.735783376 0 0 0 0.716457201 0"/>
            <feMerge>
                <feMergeNode in="shadowMatrixOuter1"/>
                <feMergeNode in="SourceGraphic"/>
            </feMerge>
        </filter>
        <circle id="r" cx="33" cy="33" r="33"/>
        <filter id="t" width="168.2%" height="168.2%" x="-33.2%" y="-29.5%" filterUnits="objectBoundingBox">
            <feOffset dx="1" dy="5" in="SourceAlpha" result="shadowOffsetOuter1"/>
            <feGaussianBlur in="shadowOffsetOuter1" result="shadowBlurOuter1" stdDeviation="10"/>
            <feColorMatrix in="shadowBlurOuter1" result="shadowMatrixOuter1" values="0 0 0 0 0.735783376 0 0 0 0 0.735783376 0 0 0 0 0.735783376 0 0 0 0.716457201 0"/>
            <feMerge>
                <feMergeNode in="shadowMatrixOuter1"/>
                <feMergeNode in="SourceGraphic"/>
            </feMerge>
        </filter>
        <circle id="u" cx="55" cy="55" r="55"/>
        <filter id="w" width="213.6%" height="213.6%" x="-55.3%" y="-49.2%" filterUnits="objectBoundingBox">
            <feOffset dx="1" dy="5" in="SourceAlpha" result="shadowOffsetOuter1"/>
            <feGaussianBlur in="shadowOffsetOuter1" result="shadowBlurOuter1" stdDeviation="10"/>
            <feColorMatrix in="shadowBlurOuter1" result="shadowMatrixOuter1" values="0 0 0 0 0.735783376 0 0 0 0 0.735783376 0 0 0 0 0.735783376 0 0 0 0.716457201 0"/>
            <feMerge>
                <feMergeNode in="shadowMatrixOuter1"/>
                <feMergeNode in="SourceGraphic"/>
            </feMerge>
        </filter>
        <circle id="x" cx="33" cy="33" r="33"/>
        <filter id="z" width="181.5%" height="181.5%" x="-39.7%" y="-35.3%" filterUnits="objectBoundingBox">
            <feOffset dx="1" dy="5" in="SourceAlpha" result="shadowOffsetOuter1"/>
            <feGaussianBlur in="shadowOffsetOuter1" result="shadowBlurOuter1" stdDeviation="10"/>
            <feColorMatrix in="shadowBlurOuter1" result="shadowMatrixOuter1" values="0 0 0 0 0.735783376 0 0 0 0 0.735783376 0 0 0 0 0.735783376 0 0 0 0.716457201 0"/>
            <feMerge>
                <feMergeNode in="shadowMatrixOuter1"/>
                <feMergeNode in="SourceGraphic"/>
            </feMerge>
        </filter>
        <circle id="A" cx="46" cy="46" r="46"/>
        <filter id="C" width="191.5%" height="191.5%" x="-44.5%" y="-39.6%" filterUnits="objectBoundingBox">
            <feOffset dx="1" dy="5" in="SourceAlpha" result="shadowOffsetOuter1"/>
            <feGaussianBlur in="shadowOffsetOuter1" result="shadowBlurOuter1" stdDeviation="10"/>
            <feColorMatrix in="shadowBlurOuter1" result="shadowMatrixOuter1" values="0 0 0 0 0.735783376 0 0 0 0 0.735783376 0 0 0 0 0.735783376 0 0 0 0.716457201 0"/>
            <feMerge>
                <feMergeNode in="shadowMatrixOuter1"/>
                <feMergeNode in="SourceGraphic"/>
            </feMerge>
        </filter>
        <circle id="D" cx="41" cy="41" r="41"/>
    </defs>
    <g fill="none" fill-rule="evenodd">
        <g filter="url(#a)" transform="translate(24 207)">
            <mask id="c" fill="#fff">
                <use xlink:href="#b"/>
            </mask>
            <g fill-rule="nonzero">
                <use fill="#F0F0F0" fill-rule="evenodd" xlink:href="#b"/>
                <circle cx="53" cy="53" r="55.5" stroke="#FFF" stroke-width="5"/>
            </g>
            <g fill-rule="nonzero" mask="url(#c)">
                <g fill="#D80027">
                    <path d="M51.996 54.513h55.256c0-5.002-.637-9.848-1.824-14.458H51.996v14.458zM51.996 25.598H99.48A54.99 54.99 0 0 0 87.26 11.141H51.996v14.457zM54.299 109.932c12.462 0 23.917-4.508 32.962-12.048H21.336c9.045 7.54 20.5 12.048 32.963 12.048zM9.117 83.427H99.48a56.462 56.462 0 0 0 5.948-14.457H3.169a56.462 56.462 0 0 0 5.948 14.457z"/>
                </g>
                <path fill="#0052B4" d="M23.477 8.589h5.012l-4.662 3.387 1.78 5.48-4.661-3.387-4.662 3.387 1.538-4.734A55.302 55.302 0 0 0 7.155 24.611H8.76l-2.968 2.156a54.91 54.91 0 0 0-1.33 2.35l1.417 4.361-2.644-1.92a54.477 54.477 0 0 0-1.799 4.269l1.561 4.806h5.763L4.099 44.02l1.78 5.48-4.661-3.387-2.793 2.029A55.53 55.53 0 0 0-2 55h55V0C42.135 0 32.007 3.152 23.477 8.589zm2.13 40.911l-4.661-3.387-4.662 3.387 1.78-5.48-4.661-3.387h5.762l1.781-5.48 1.78 5.48h5.763l-4.662 3.387 1.78 5.48zm-1.78-21.502l1.78 5.48-4.661-3.387-4.662 3.387 1.78-5.48-4.661-3.387h5.762l1.781-5.48 1.78 5.48h5.763l-4.662 3.387zM45.337 49.5l-4.663-3.387-4.662 3.387 1.781-5.48-4.662-3.387h5.763l1.78-5.48 1.78 5.48h5.763l-4.662 3.387 1.781 5.48zm-1.782-21.502l1.781 5.48-4.662-3.387-4.662 3.387 1.781-5.48-4.662-3.387h5.763l1.78-5.48 1.78 5.48h5.763l-4.662 3.387zm0-16.022l1.781 5.48-4.662-3.387-4.662 3.387 1.781-5.48-4.662-3.387h5.763l1.78-5.48 1.78 5.48h5.763l-4.662 3.387z"/>
            </g>
            <circle cx="52" cy="53" r="56" fill="url(#d)" fill-rule="nonzero" mask="url(#c)"/>
        </g>
        <g filter="url(#e)" transform="translate(670 20)">
            <mask id="g" fill="#fff">
                <use xlink:href="#f"/>
            </mask>
            <g fill-rule="nonzero">
                <use fill="#0052B4" fill-rule="evenodd" xlink:href="#f"/>
                <circle cx="50" cy="50" r="52.5" stroke="#FFF" stroke-width="5"/>
            </g>
            <g mask="url(#g)">
                <g transform="translate(-11 -8)">
                    <mask id="i" fill="#fff">
                        <use xlink:href="#h"/>
                    </mask>
                    <use fill="#D8D8D8" xlink:href="#h"/>
                    <g mask="url(#i)">
                        <g fill-rule="nonzero" transform="translate(-11 -5)">
                            <circle cx="41" cy="41" r="41" fill="#F0F0F0"/>
                            <g fill="#0052B4">
                                <path d="M8.475 16.038a40.85 40.85 0 0 0-7.063 14.267h21.33L8.475 16.038zM80.588 30.305a40.854 40.854 0 0 0-7.063-14.266L59.259 30.305h21.329zM1.412 51.696a40.854 40.854 0 0 0 7.063 14.266l14.266-14.266H1.412zM65.962 8.476a40.853 40.853 0 0 0-14.266-7.064v21.33L65.962 8.476zM16.038 73.524a40.854 40.854 0 0 0 14.266 7.064v-21.33L16.038 73.525zM30.304 1.412a40.854 40.854 0 0 0-14.266 7.063l14.266 14.266V1.412zM51.696 80.588a40.854 40.854 0 0 0 14.266-7.063L51.696 59.259v21.329zM59.259 51.696l14.266 14.266a40.852 40.852 0 0 0 7.063-14.266h-21.33z"/>
                            </g>
                            <g fill="#D80027">
                                <path d="M81.653 35.652H46.348V.347a41.41 41.41 0 0 0-10.696 0v35.305H.347a41.41 41.41 0 0 0 0 10.696h35.305v35.305a41.406 41.406 0 0 0 10.696 0V46.348h35.305a41.406 41.406 0 0 0 0-10.696z"/>
                                <path d="M51.696 51.696L69.99 69.99a41.102 41.102 0 0 0 2.41-2.632L56.738 51.696h-5.042zM30.304 51.696L12.009 69.99c.84.842 1.72 1.644 2.632 2.41l15.663-15.664v-5.041zM30.304 30.305L12.01 12.008a41.102 41.102 0 0 0-2.41 2.632l15.663 15.663h5.042zM51.696 30.305L69.99 12.009a41.053 41.053 0 0 0-2.632-2.41L51.696 25.263v5.042z"/>
                            </g>
                        </g>
                    </g>
                </g>
            </g>
            <circle cx="50" cy="50" r="50" fill="url(#d)" fill-rule="nonzero"/>
            <path fill="#FFF" d="M65.451 23.188L66.855 19l1.45 4.188 3.998-1.407-2.295 3.58 3.757 2.329-4.47.45.713 4.483-3.153-3.308-2.994 3.308.574-4.483L60 27.69l3.86-2.329-2.532-3.58zM52.451 80.188L53.855 76l1.45 4.188 3.998-1.407-2.295 3.58 3.757 2.329-4.47.45.713 4.483-3.153-3.308-2.994 3.308.574-4.483L47 84.69l3.86-2.329-2.532-3.58zM28.252 64.802L29.862 60l1.663 4.802 4.584-1.612-2.632 4.105 4.31 2.67-5.127.517.817 5.141-3.616-3.794-3.433 3.794.658-5.141L22 69.965l4.428-2.67-2.905-4.105zM83.451 43.188L84.855 39l1.45 4.188 3.998-1.407-2.295 3.58 3.757 2.329-4.47.45.713 4.483-3.153-3.308-2.994 3.308.574-4.483L78 47.69l3.86-2.329-2.532-3.58zM66.781 58.63L67.93 56l1.152 2.63h2.805l-2.23 2.176.817 2.83-2.544-1.687-2.366 1.687.682-2.83L64 58.63z"/>
        </g>
        <g fill-rule="nonzero" filter="url(#j)" transform="translate(175 73)">
            <circle cx="57.5" cy="57.5" r="57.5" fill="#F0F0F0" stroke="#FFF" stroke-width="11"/>
            <circle cx="57.5" cy="57.5" r="57.5" fill="#F0F0F0"/>
            <g fill="#D80027">
                <path d="M115 57.5c0-22.768-13.267-42.442-32.5-51.73v103.46C101.733 99.943 115 80.269 115 57.5zM0 57.5c0 22.768 13.267 42.442 32.5 51.73V5.77C13.267 15.057 0 34.731 0 57.5zM67.5 64.99l10-4.993-5-2.497v-4.994l-10 4.994 5-9.988h-5l-5-7.49-5 7.49h-5l5 9.988-10-4.994V57.5l-5 2.497 10 4.994-2.5 4.994h10v7.49h5v-7.49h10z"/>
            </g>
            <circle cx="57.5" cy="57.5" r="57.5" fill="url(#d)"/>
        </g>
        <g filter="url(#k)" transform="translate(190 251)">
            <mask id="m" fill="#fff">
                <use xlink:href="#l"/>
            </mask>
            <g fill-rule="nonzero">
                <use fill="#F0F0F0" fill-rule="evenodd" xlink:href="#l"/>
                <circle cx="33" cy="33" r="35.5" stroke="#FFF" stroke-width="5"/>
            </g>
            <g fill-rule="nonzero" mask="url(#m)">
                <path fill="#73AF00" d="M19.56 67H-7.523C-8.338 67-9 66.152-9 65.105v-68.21C-9-4.152-8.338-5-7.523-5H19.56v72z"/>
                <path fill="#F5F5F5" d="M19.56-1h28.56v72H19.56z"/>
                <path fill="#FF4B55" d="M74.523 68H47.44V-1h27.083C75.338-1 76-.187 76 .816v65.368C76 67.187 75.338 68 74.523 68z"/>
                <path fill="#FFD250" d="M35.88 34.24l-2.72 1.36v1.36h1.36z"/>
                <g fill="#00C3A0">
                    <path d="M33.5 40.212a.655.655 0 0 1-.647-.664v-2.654c0-.367.29-.664.647-.664.358 0 .647.297.647.664v2.654c0 .367-.29.664-.647.664z"/>
                    <path d="M33.5 37.557c-2.542 0-4.996-1.006-6.911-2.832a.676.676 0 0 1-.034-.938.638.638 0 0 1 .914-.034c1.676 1.597 3.817 2.477 6.03 2.477 2.214 0 4.356-.88 6.031-2.477a.636.636 0 0 1 .914.034.675.675 0 0 1-.033.938c-1.915 1.827-4.37 2.832-6.911 2.832z"/>
                </g>
                <path fill="#00AADC" d="M33.5 40.36c-1.578 0-3.106-.532-4.42-1.538l.682-1.182a6.113 6.113 0 0 0 7.476 0l.682 1.182c-1.314 1.007-2.842 1.538-4.42 1.538z"/>
                <path fill="#732D37" d="M32.647 31.52l-1.305 2.046-.222.674 3.4-.798z"/>
                <path fill="#AAD264" d="M29.866 34.92c-1.662 0-3.657-1.38-4.186-4.457l1.24-.207c.44 2.558 2.034 3.425 2.992 3.422.293-.008.6-.108.624-.312.028-.245.035-.303-.623-.523-.357-.12-.762-.254-1.047-.575-1.15-1.297.407-2.668 1.155-3.328.132-.116.187-.215.173-.252-.041-.107-.288-.267-.566-.267-.799 0-1.405-.445-1.581-1.162-.183-.742.163-1.523.82-1.859l.578 1.103c-.154.079-.215.303-.176.463.015.064.053.214.36.214.77 0 1.502.448 1.74 1.065.102.263.255.947-.51 1.621-.826.728-1.32 1.276-1.046 1.584.062.07.328.16.504.217.566.19 1.62.541 1.468 1.84-.094.818-.833 1.385-1.838 1.412l-.08.001z"/>
                <path fill="#874150" d="M34.387 27.891s1.226-2.54-1.227-3.809c0 0 8.587-1.27 7.36 10.158-.805-.667-2-1.886-2.428-2.857l-3.705-2.222v-1.27z"/>
                <path fill="#732D37" d="M33.16 30.16l6.12 3.57-2.448 1.19-3.672-3.57v-1.19z"/>
                <path fill="#783C46" d="M31.12 26.675c.657 0 1.19.57 1.19 1.275l-.001.001c-.71.76-.886 1.923-.437 2.885l.269.576c.112.24.26.46.437.65L35.88 35.6v-1.762c0-2.195-.477-4.36-1.393-6.324-.605-1.295-1.841-2.114-3.193-2.114h-.174v1.275z"/>
                <path fill="#FFD250" d="M30.9 25.4l-1.14 1.36v1.36s1.356-.82 1.812-1.081c.32-.183.262-.615.078-.823-.142-.162-.75-.816-.75-.816z"/>
                <path fill="#AAD264" d="M33.84 42.4c-6 0-10.88-4.88-10.88-10.88h1.28c0 5.294 4.306 9.6 9.6 9.6s9.6-4.306 9.6-9.6h1.28c0 6-4.88 10.88-10.88 10.88z"/>
                <g fill="#FFE15A" transform="translate(22.96 34.24)">
                    <ellipse cx=".897" cy=".831" rx="1" ry="1"/>
                    <ellipse cx="2.823" cy="3.716" rx="1" ry="1"/>
                    <ellipse cx="5.951" cy="5.897" rx="1" ry="1"/>
                    <ellipse cx="20.107" cy=".831" rx="1" ry="1"/>
                    <ellipse cx="18.179" cy="3.716" rx="1" ry="1"/>
                    <ellipse cx="15.051" cy="5.897" rx="1" ry="1"/>
                </g>
                <path fill="#FFB478" d="M34.52 40.36h-1.36a1.36 1.36 0 0 1 0-2.72h1.36a1.36 1.36 0 0 1 0 2.72z"/>
                <path fill="#9B4B5A" d="M38.092 31.383c.41 1.243 1.278 2.38 2.428 2.856v.001c1.227-11.428-7.36-10.158-7.36-10.158 6.133 0 4.932 7.301 4.932 7.301z"/>
            </g>
            <circle cx="32.5" cy="32.5" r="34.5" fill="url(#d)" fill-rule="nonzero" mask="url(#m)"/>
        </g>
        <g filter="url(#n)" transform="translate(357 138)">
            <mask id="p" fill="#fff">
                <use xlink:href="#o"/>
            </mask>
            <use fill="#F0F0F0" fill-rule="nonzero" stroke="#FFF" stroke-width="9" xlink:href="#o"/>
            <g fill-rule="nonzero" mask="url(#p)">
                <circle cx="53" cy="53" r="53" fill="#F0F0F0"/>
                <g fill="#0052B4">
                    <path d="M10.956 20.733a52.807 52.807 0 0 0-9.13 18.441h27.572L10.956 20.733zM104.174 39.174a52.811 52.811 0 0 0-9.13-18.441L76.603 39.174h27.571zM1.826 66.826a52.812 52.812 0 0 0 9.13 18.442l18.441-18.442H1.826zM85.267 10.956a52.81 52.81 0 0 0-18.441-9.13v27.572l18.441-18.442zM20.733 95.044a52.811 52.811 0 0 0 18.441 9.13V76.603l-18.441 18.44zM39.174 1.826a52.812 52.812 0 0 0-18.441 9.13l18.44 18.441V1.826zM66.826 104.174a52.812 52.812 0 0 0 18.441-9.13l-18.44-18.441v27.571zM76.603 66.826l18.44 18.442a52.81 52.81 0 0 0 9.131-18.442H76.603z"/>
                </g>
                <g fill="#D80027">
                    <path d="M105.551 46.087H59.913V.449a53.53 53.53 0 0 0-13.826 0v45.638H.449a53.53 53.53 0 0 0 0 13.826h45.638v45.638a53.524 53.524 0 0 0 13.826 0V59.913h45.638a53.524 53.524 0 0 0 0-13.826z"/>
                    <path d="M66.826 66.826l23.65 23.65a53.132 53.132 0 0 0 3.116-3.402L73.344 66.826h-6.518zM39.174 66.826l-23.65 23.65a53.132 53.132 0 0 0 3.402 3.116l20.248-20.248v-6.518zM39.174 39.174l-23.65-23.65a53.132 53.132 0 0 0-3.116 3.402l20.248 20.248h6.518zM66.826 39.174l23.65-23.65a53.068 53.068 0 0 0-3.402-3.116L66.826 32.656v6.518z"/>
                </g>
            </g>
            <circle cx="53.5" cy="51.5" r="54.5" fill="url(#d)" fill-rule="nonzero" mask="url(#p)"/>
        </g>
        <g filter="url(#q)" transform="translate(511 85)">
            <mask id="s" fill="#fff">
                <use xlink:href="#r"/>
            </mask>
            <g fill-rule="nonzero">
                <use fill="#F0F0F0" fill-rule="evenodd" xlink:href="#r"/>
                <circle cx="33" cy="33" r="35.5" stroke="#FFF" stroke-width="5"/>
            </g>
            <g fill-rule="nonzero" mask="url(#s)">
                <path fill="#FFDA44" d="M2.053 44.478C6.715 57.044 18.81 66 33 66s26.285-8.956 30.947-21.522L33 41.608l-30.947 2.87z"/>
                <path fill="#000" d="M33 0C18.811 0 6.715 8.955 2.053 21.522L33 24.392l30.947-2.87C59.285 8.955 47.19 0 33 0z"/>
                <path fill="#D80027" d="M2.053 21.522A32.93 32.93 0 0 0 0 33c0 4.037.726 7.903 2.053 11.478h61.895A32.93 32.93 0 0 0 66 33c0-4.037-.726-7.903-2.053-11.478H2.053z"/>
            </g>
            <circle cx="33.5" cy="33.5" r="34.5" fill="url(#d)" fill-rule="nonzero" mask="url(#s)"/>
        </g>
        <g filter="url(#t)" transform="translate(494 284)">
            <mask id="v" fill="#fff">
                <use xlink:href="#u"/>
            </mask>
            <g fill-rule="nonzero">
                <use fill="#F0F0F0" fill-rule="evenodd" xlink:href="#u"/>
                <circle cx="55" cy="55" r="57.5" stroke="#FFF" stroke-width="5"/>
            </g>
            <g fill-rule="nonzero" mask="url(#v)">
                <circle cx="55" cy="55" r="55" fill="#F0F0F0"/>
                <path fill="#D80027" d="M110 55c0-23.648-14.926-43.808-35.87-51.579v103.158C95.074 98.808 110 78.65 110 55z"/>
                <path fill="#0052B4" d="M0 55c0 23.648 14.926 43.808 35.87 51.579V3.421C14.926 11.192 0 31.351 0 55z"/>
            </g>
            <circle cx="56.5" cy="54.5" r="57.5" fill="url(#d)" fill-rule="nonzero" mask="url(#v)"/>
        </g>
        <g filter="url(#w)" transform="translate(604 172)">
            <mask id="y" fill="#fff">
                <use xlink:href="#x"/>
            </mask>
            <g fill-rule="nonzero">
                <use fill="#F0F0F0" fill-rule="evenodd" xlink:href="#x"/>
                <circle cx="33" cy="33" r="35.5" stroke="#FFF" stroke-width="5"/>
            </g>
            <g fill-rule="nonzero" mask="url(#y)">
                <circle cx="33" cy="33" r="33" fill="#F0F0F0"/>
                <path fill="#D80027" d="M66 33c0-14.189-8.955-26.285-21.522-30.947v61.895C57.045 59.285 66 47.188 66 33z"/>
                <path fill="#6DA544" d="M0 33c0 14.189 8.955 26.285 21.522 30.947V2.053C8.955 6.715 0 18.81 0 33z"/>
            </g>
            <circle cx="34.5" cy="33.5" r="34.5" fill="url(#d)" fill-rule="nonzero" mask="url(#y)"/>
        </g>
        <g filter="url(#z)" transform="translate(700 258)">
            <mask id="B" fill="#fff">
                <use xlink:href="#A"/>
            </mask>
            <g fill-rule="nonzero">
                <use fill="#F0F0F0" fill-rule="evenodd" xlink:href="#A"/>
                <circle cx="46" cy="46" r="48.5" stroke="#FFF" stroke-width="5"/>
            </g>
            <g fill-rule="nonzero" mask="url(#B)">
                <path fill="#FFDA44" d="M0 46a45.901 45.901 0 0 0 2.861 16L46 66l43.139-4A45.901 45.901 0 0 0 92 46a45.901 45.901 0 0 0-2.861-16L46 26 2.861 30A45.901 45.901 0 0 0 0 46z"/>
                <g fill="#D80027">
                    <path d="M89.139 30C82.639 12.483 65.779 0 46 0 26.222 0 9.36 12.483 2.861 30H89.14zM2.861 62C9.361 79.517 26.221 92 46 92c19.778 0 36.64-12.483 43.139-30H2.86z"/>
                </g>
            </g>
            <circle cx="46.5" cy="45.5" r="46.5" fill="url(#d)" fill-rule="nonzero" mask="url(#B)"/>
        </g>
        <g filter="url(#C)" transform="translate(304 308)">
            <mask id="E" fill="#fff">
                <use xlink:href="#D"/>
            </mask>
            <g fill-rule="nonzero">
                <use fill="#F0F0F0" fill-rule="evenodd" xlink:href="#D"/>
                <circle cx="41" cy="41" r="43.5" stroke="#FFF" stroke-width="5"/>
            </g>
            <g fill-rule="nonzero" mask="url(#E)">
                <circle cx="41" cy="41" r="41" fill="#F0F0F0"/>
                <circle cx="41" cy="41" r="17.891" fill="#D80027"/>
            </g>
            <ellipse cx="39.758" cy="41.621" fill="url(#d)" fill-rule="nonzero" mask="url(#E)" rx="43.485" ry="40.379"/>
        </g>
    </g>
</svg>
