<svg xmlns="http://www.w3.org/2000/svg" width="27" height="17" viewBox="0 0 27 17">
    <path fill="#FFF" fill-rule="nonzero" stroke="#63CFFB" stroke-width="1.5" d="M1.7 1.736H25.568v4.262h-.569a2.549 2.549 0 0 0-2.557 2.557A2.549 2.549 0 0 0 25 11.113h.569v4.262H1.7v-4.262h.568a2.549 2.549 0 0 0 2.558-2.558 2.549 2.549 0 0 0-2.558-2.557H1.7V1.736zm9.945 2.842l1.065 2.646 2.913.177-2.247 1.812.728 2.752-2.46-1.527-2.459 1.527.728-2.752L7.667 7.4l2.912-.177 1.066-2.646zm6.609-3.131v14.18-14.18z"/>
</svg>
