<svg xmlns="http://www.w3.org/2000/svg" width="132" height="22" viewBox="0 0 132 22">
    <g fill="#FFF" fill-rule="nonzero">
        <path d="M14.395 12.24a1.193 1.193 0 0 1-.045-1.095 5.535 5.535 0 0 1 1.167-1.634c.397-.38 1.118-.462 1.603-.196 1.468.805 4.494 1.66 9.622 2.174-.543-4.244-4.707-7.674-9.925-7.917-5.742-.267-10.584 3.426-10.816 8.25-.231 4.823 4.235 8.95 9.977 9.218 3.14.146 6.01-.894 8.006-2.654-1.138-.3-7.275-2.082-9.589-6.146"/>
        <path d="M15.212 10.894s2.661-1.417 4.185.55c.026.033.05.07.071.107a22.46 22.46 0 0 0 1.356 2.007c.138.177.298.332.48.465.307.226.806.672.822.709.022.048-1.96-.633-3.347-2.238-.563-.652-1.002-1.102-1.768-1.338a6.07 6.07 0 0 0-1.799-.262"/>
        <path d="M18.978 13.797c-.174-.008-.305-.18-.296-.384.009-.204.156-.362.33-.353.172.009.305.18.296.384-.01.204-.157.362-.33.353m1.185-.584c-.43-.533-1.085-.692-1.465-.356-.379.336-.339 1.04.09 1.573.43.533 1.085.692 1.464.356.38-.336.34-1.04-.09-1.573m3.98 2.124a.197.197 0 0 1-.17-.103.193.193 0 0 1 .01-.198.197.197 0 0 1 .36.115.196.196 0 0 1-.2.186m.904-.603s-.605.025-1.537.302c0 0 .308 1.02 1.096.81a.661.661 0 0 0 .431-.39c.077-.183.143-.442.01-.722"/>
        <path d="M23.048 15.068s.674-.07 1.43-.586c0 0 1.033-.792 1.58-.641 0 0 .365.042.447.608 0 0-.73.04-1.466.345-.014.006-.36.124-.373.13-.155.067-1.118.462-1.618.144zM10.833 6.416s-.554-1.179-3.547-3.064a4.392 4.392 0 0 1-1.384-1.36c-.314-.499-.581-1.14-.553-1.855l-.287.497c-.161.28-.19.616-.078.92l.232.628-.64-.705-.658 1.142s.152 1.72 2.87 2.918c0 0 1.169.42 2.665 1.214l1.38-.335zm-1.153.857s-1.217-1.065-5.499-1.71a5.379 5.379 0 0 1-2.23-.855C1.347 4.3.723 3.703.387 2.874L.243 3.3l.112.331-.171-.156L0 4.02l.043.068c.266.42.385.755.946 1.143a.39.39 0 0 1 .032.026c.035.031.13.096.168.125l.896.565-.126-.043A4.864 4.864 0 0 1 .123 4.81l-.046-.043v.815l.314.292-.315-.1v.278l.164.11-.164.027v.232S1.125 8.304 4.75 8.303c0 0 1.51-.108 3.575.045L9.68 7.273z"/>
        <g>
            <path d="M40.797 11.132c0 1.13-.218 2.062-.655 2.791-.437.73-1.073 1.218-1.911 1.464a15.22 15.22 0 0 0 2.446.543l-.439 2.01c-1.955-.357-3.509-.85-4.66-1.477-1.152-.626-1.97-1.374-2.455-2.245-.485-.87-.727-1.888-.727-3.055 0-1.053.172-1.93.517-2.633.344-.703.83-1.227 1.456-1.57.627-.344 1.37-.515 2.227-.515.854 0 1.595.172 2.224.515.63.343 1.116.865 1.46 1.563.344.699.517 1.569.517 2.609zm-5.847-.05c0 .955.136 1.638.408 2.05.273.415.686.621 1.238.621.55 0 .961-.204 1.235-.61.275-.408.412-1.061.412-1.962 0-.945-.137-1.627-.412-2.044-.275-.417-.686-.626-1.235-.626-.545 0-.955.204-1.232.61-.276.408-.414 1.061-.414 1.962zm10.576 4.737c-.87 0-1.584-.142-2.145-.426a2.7 2.7 0 0 1-1.253-1.303c-.275-.587-.412-1.34-.412-2.261v-5.26h2.488v5.525c0 .58.112.996.333 1.248.224.254.552.38.99.38.436 0 .764-.126.985-.379.22-.253.33-.67.33-1.249V6.568h2.434v5.26c0 .922-.134 1.675-.402 2.26a2.667 2.667 0 0 1-1.232 1.305c-.553.284-1.258.426-2.116.426zm10.264-.123l-.517-2.103h-2.668l-.51 2.103H49.69l2.422-9.128h3.69l2.415 9.128H55.79zm-2.68-4.175h1.659l-.83-3.386-.829 3.386zm11.111-4.953h2.326v9.128h-2.476l-2.95-5.094v5.094h-2.326V6.568h2.476l2.95 5.094V6.568zm5.493 9.128V8.739H67.19V6.57h7.542v2.17h-2.524v6.957h-2.494zm5.66 0V6.568h2.489v9.128h-2.488zm9.964-7.006h-3.81v1.585h3.197v2.121h-3.197v3.3H79.04V6.568h6.298V8.69zm7.818-2.122L90.23 11.94v3.756h-2.488v-3.75l-3.005-5.378h2.602l1.713 3.158 1.707-3.158h2.397zM104.538 6.445h2.306v9.287h-2.455l-2.926-5.183v5.183h-2.307V6.445h2.456l2.926 5.183V6.445zm3.474 9.287V6.445h2.468v9.287h-2.468zm9.017-9.287h2.307v9.287h-2.456l-2.926-5.183v5.183h-2.306V6.445h2.455l2.926 5.183V6.445zm2.646 10.397c.318-.46.537-.914.656-1.361.12-.449.179-1.002.179-1.663V6.445h2.461v7.272c0 .812-.13 1.552-.39 2.222-.26.67-.7 1.336-1.32 2.001l-1.586-1.098zm9.917-1.11l-.512-2.14h-2.646l-.507 2.14h-2.384l2.402-9.287h3.66L132 15.732h-2.408zm-2.658-4.248h1.645l-.822-3.445-.823 3.445z"/>
        </g>
    </g>
</svg>
