<svg xmlns="http://www.w3.org/2000/svg" width="23" height="23" viewBox="0 0 23 23">
    <path fill="#FFF" fill-rule="nonzero" d="M11.512 18.588l3.943 3.978c.387.387 1.056.105 1.056-.423v-3.52h3.098a3.065 3.065 0 0 0 3.062-3.063V3.063A3.065 3.065 0 0 0 19.61 0H3.063A3.065 3.065 0 0 0 0 3.063v12.462a3.065 3.065 0 0 0 3.063 3.063h8.449zM10.56 4.26h1.616c.176 0 .351.14.351.351l-.175 6.606c0 .176-.14.281-.281.281h-1.336a.277.277 0 0 1-.28-.28L10.28 4.61c-.07-.21.07-.351.28-.351zm-.352 8.73c0-.281.211-.493.493-.493h1.303c.281 0 .492.212.492.493v.845a.481.481 0 0 1-.492.493h-1.303a.481.481 0 0 1-.493-.493v-.845z"/>
</svg>
