<svg xmlns="http://www.w3.org/2000/svg" width="33" height="13" viewBox="0 0 33 13">
    <path fill="#FFF" fill-rule="nonzero" d="M24.75 10.395a4.085 4.085 0 0 1-4.125-4.125c0-2.343 1.815-4.125 4.125-4.125 2.343 0 4.125 1.782 4.125 4.125 0 2.31-1.782 4.125-4.125 4.125zm-16.5 0A4.085 4.085 0 0 1 4.125 6.27c0-2.343 1.815-4.125 4.125-4.125 2.343 0 4.125 1.782 4.125 4.125 0 2.31-1.782 4.125-4.125 4.125zm23.727-5.148h-1.122c-.462-2.97-2.97-5.148-6.105-5.148-2.541 0-4.653 1.419-5.61 3.564a6.164 6.164 0 0 0-5.28 0C12.903 1.551 10.791.099 8.25.099c-3.135 0-5.643 2.178-6.105 5.148H1.023C0 5.247 0 5.247 0 6.27s0 1.023 1.023 1.023h1.122c.462 2.97 2.97 5.148 6.105 5.148 3.498 0 6.204-2.706 6.204-6.204 0-.198 0-.396-.033-.627 1.386-.693 2.772-.693 4.158 0-.033.231-.033.429-.033.627 0 3.498 2.706 6.204 6.204 6.204 3.135 0 5.643-2.178 6.105-5.148h1.122C33 7.293 33 7.293 33 6.27s0-1.023-1.023-1.023z"/>
</svg>
