<svg xmlns="http://www.w3.org/2000/svg" width="25" height="24" viewBox="0 0 25 24">
    <path fill="#FFF" fill-rule="evenodd" d="M17.782 14.93l6.785 6.785-2.036 2.035-6.722-6.784v-1.049l-.432-.37c-1.645 1.398-3.557 2.097-5.736 2.097-2.426 0-4.492-.853-6.198-2.56-1.706-1.706-2.56-3.772-2.56-6.198 0-2.426.854-4.502 2.56-6.229C5.149.93 7.195.067 9.58.067c2.425 0 4.492.863 6.198 2.59 1.706 1.727 2.56 3.803 2.56 6.23 0 2.178-.7 4.09-2.098 5.735l.432.308h1.11zm-8.14 0c1.685 0 3.124-.585 4.317-1.757 1.192-1.172 1.788-2.601 1.788-4.287s-.596-3.125-1.788-4.317C12.766 3.377 11.327 2.78 9.64 2.78c-1.686 0-3.114.597-4.286 1.789C4.183 5.761 3.597 7.2 3.597 8.886c0 1.686.586 3.115 1.758 4.287 1.172 1.172 2.6 1.757 4.286 1.757z"/>
</svg>
