<svg xmlns="http://www.w3.org/2000/svg" width="22" height="22" viewBox="0 0 22 22">
    <g fill="none" fill-rule="evenodd" transform="translate(1 1)">
        <circle cx="10" cy="10" r="10" stroke="#737B8B"/>
        <path fill="#737B8B" d="M14.157 7.347c-.218.34-.509.642-.872.909v.218c0 1.272-.457 2.425-1.372 3.461-.914 1.036-2.129 1.553-3.643 1.553a4.853 4.853 0 0 1-2.689-.799c.194.024.333.036.418.036.812 0 1.539-.254 2.18-.763a1.769 1.769 0 0 1-1.017-.354 1.664 1.664 0 0 1-.618-.863c.146.024.255.036.327.036.121 0 .279-.024.473-.072a1.776 1.776 0 0 1-1.009-.61 1.674 1.674 0 0 1-.408-1.116v-.019c.266.146.533.218.799.218-.52-.339-.781-.83-.781-1.471 0-.303.078-.594.236-.872.933 1.15 2.138 1.762 3.616 1.835a1.588 1.588 0 0 1-.037-.4c0-.497.17-.915.509-1.254.339-.339.757-.508 1.254-.508.496 0 .92.187 1.271.563.364-.06.74-.206 1.127-.436a1.611 1.611 0 0 1-.781.98 3 3 0 0 0 1.017-.272z"/>
    </g>
</svg>
